<?xml version="1.0" standalone="no"?><!DOCTYPE svg PUBLIC "-//W3C//DTD SVG 1.1//EN" "http://www.w3.org/Graphics/SVG/1.1/DTD/svg11.dtd"><svg t="1744726773803" class="icon" viewBox="0 0 2241 1024" version="1.1" xmlns="http://www.w3.org/2000/svg" p-id="3024" xmlns:xlink="http://www.w3.org/1999/xlink" width="437.6953125" height="200"><path d="M626.875 734.993c-32.227-24.43-68.613-41.584-106.038-56.658-76.41-30.148-156.46-41.064-238.067-38.985-19.233 0-38.465 1.56-58.218 2.6 0-1.56-1.56-3.64-1.56-6.238-5.197-58.218-11.435-116.435-15.593-173.613-3.639-47.82-5.198-95.642-6.238-143.463-1.559-92.005-1.559-183.489-1.559-275.493 0-21.831-1.56-19.232-18.193-11.955C129.95 51.98 79.01 72.252 27.55 92.004c-1.56 1.56-4.158 6.757-3.119 9.356 15.594 58.218 27.03 117.994 34.827 177.251 7.797 51.46 14.554 101.36 21.831 151.78 6.238 44.184 10.396 88.366 15.594 133.069 5.198 45.222 11.436 90.445 16.634 136.187 5.198 43.663 10.396 85.766 15.594 129.43 3.638 31.187 6.757 61.855 9.356 93.043 1.56 24.43 3.639 48.86 4.158 72.252 0 5.198 1.56 7.797 6.758 7.797 11.435 0 21.831 1.559 32.747 0 53.02-5.198 106.039-8.837 158.018-16.634 40.025-6.238 79.01-15.594 117.474-28.589 54.579-18.193 101.36-49.38 146.583-85.247 19.233-14.554 34.826-32.227 41.584-54.578 14.554-36.906 8.317-61.856-18.713-82.128zM327.472 908.085c-7.797-58.217-15.594-114.875-23.39-171.013 30.147 6.757 156.978 57.178 163.215 64.975-46.261 34.826-92.004 70.172-139.825 106.038z m605.044-145.023c-2.6-30.148-5.198-61.856-8.837-92.004-3.638-41.584-7.797-83.168-11.435-125.271-3.639-38.465-5.198-76.41-7.797-114.875-3.639-53.02-7.797-106.039-11.436-159.058l-7.797-117.474c-1.04-14.555-6.757-18.193-21.831-17.154-18.193 1.56-35.866 2.6-54.06 3.639-15.593 1.56-31.187 3.639-46.261 5.198 46.782 248.463 67.574 497.446 92.004 744.35 28.589 2.598 54.579 4.158 81.608 6.757 5.198 1.04 7.797 0 7.797-5.198l-2.599-28.59c-2.08-34.306-5.718-67.573-9.356-100.32zM790.09 794.25c-3.638-31.188-6.757-61.856-10.396-93.044-3.638-35.346-6.757-71.212-11.435-106.558-2.6-21.832-6.238-42.624-9.356-63.416-1.04-7.796-6.238-11.435-14.555-10.395-14.554 1.559-30.148 1.559-45.222 3.638-20.792 2.6-41.584 6.238-63.415 8.837a46036.03 46036.03 0 0 0 79.009 402.842c31.188-4.158 60.816-7.797 90.964-11.435-1.04-10.396-2.599-20.792-3.638-30.148-4.159-34.307-8.317-67.574-11.956-100.321z m310.839 138.786c-1.04-51.46-2.599-101.36-3.639-152.82-1.04-63.416 0-127.87 0-191.286 0-14.035-1.04-27.03-1.559-41.064 0-6.238-3.639-11.436-10.396-11.436a2135.975 2135.975 0 0 0-81.608-1.559c-10.396 0-19.752 1.56-30.148 3.639 1.04 3.638 1.04 6.237 1.04 8.836 3.638 43.663 7.796 86.806 11.435 129.43 3.638 41.583 7.797 84.207 11.435 125.79 4.159 45.223 7.797 90.445 11.956 135.668 0 2.598 4.158 6.757 6.757 6.757 27.55 1.04 56.658 0 85.767 0-1.04-5.718-1.04-9.356-1.04-11.955z m-350.863-462.1c-5.198-49.38-9.356-96.162-14.035-143.984-1.04-6.237-3.638-9.356-8.836-9.356-16.634 0-33.787 0-51.46 1.04 6.757 53.019 12.995 103.959 19.752 156.458 19.233-1.559 36.386-2.079 54.579-4.158z m343.066 7.797V346.705c0-9.357-3.639-11.956-11.436-11.956h-45.222v151.78c19.752 1.04 38.465 1.56 56.658 2.6v-10.396z m-419.476-1.56v-10.395c-2.6-27.03-6.238-53.02-8.837-80.05-1.56-17.152-3.638-33.786-5.198-51.459-1.04-4.158 1.04-10.396-6.237-9.356-16.634 1.56-32.747 5.198-49.38 6.757 9.355 51.46 18.192 101.36 27.548 151.78l42.104-7.276z m344.105 8.837v-79.009c0-20.792-1.04-42.623 0-63.415 0-7.797-2.599-9.357-9.356-9.357h-46.262c4.159 54.06 7.797 105 11.955 155.42 14.035-1.04 28.07-2.08 43.663-3.639z m711.083 248.983c-32.228-24.43-68.614-41.584-106.039-56.658-76.41-30.148-156.459-41.064-238.067-38.985-19.232 0-38.465 1.56-58.217 2.6 0-1.56-1.56-3.64-1.56-6.238-5.198-58.218-11.435-116.435-15.593-173.613-3.64-47.82-5.198-95.642-6.238-143.463-1.56-92.005-1.56-183.489-1.56-275.493 0-21.831-1.559-19.232-18.192-11.955-51.46 20.792-102.4 41.064-153.86 60.816-1.56 1.04-4.159 6.238-3.639 8.837 15.594 58.217 27.03 117.994 34.827 177.25 7.797 51.46 14.554 101.36 21.831 151.781 6.238 44.183 10.396 88.366 15.594 133.068 5.198 45.222 11.436 90.445 16.633 136.187 5.198 43.663 10.396 85.766 15.594 129.43 3.639 31.187 6.758 61.855 9.357 93.043 1.56 24.43 3.638 48.86 4.158 72.252 0 5.198 1.56 7.797 6.757 7.797 11.436 0 21.832 1.56 32.748 0 53.019-5.198 106.038-8.837 158.018-16.634 40.024-6.237 79.01-15.594 117.474-28.589 54.579-18.192 101.36-49.38 146.583-85.246 19.232-14.555 34.826-32.228 41.584-54.579 15.074-36.386 8.836-61.336-18.193-81.608z m-299.403 173.092c-7.797-58.217-15.594-114.875-23.391-171.013 30.148 6.757 156.978 57.178 163.216 64.975-46.262 34.826-92.004 70.172-139.825 106.038z m605.043-145.023c-2.599-30.148-5.198-61.856-8.836-92.004-3.639-41.584-7.797-83.168-11.436-125.271-3.638-38.465-5.198-76.41-7.797-114.875-3.638-53.02-7.797-106.039-11.435-159.058l-7.797-117.474c-1.04-14.555-6.758-18.193-21.832-17.154-18.193 1.56-35.866 2.6-54.059 3.639-15.594 1.56-31.187 3.639-46.262 5.198 46.782 248.463 67.574 497.446 92.005 744.35 28.588 2.598 54.578 4.158 81.608 6.757 5.198 1.04 7.797 0 7.797-5.198l-2.6-28.59c-2.079-34.306-5.717-67.573-9.356-100.32zM1892.06 794.25c-3.639-31.188-6.757-61.856-10.396-93.044-3.639-35.346-6.757-71.212-11.436-106.558-2.599-21.832-6.237-42.624-9.356-63.416-1.04-7.796-6.237-11.435-14.554-10.395-14.555 1.559-30.148 1.559-45.223 3.638-20.791 2.6-41.583 6.238-63.415 8.837a46036.03 46036.03 0 0 0 79.01 402.842c31.187-4.158 60.816-7.797 90.964-11.435-1.04-10.396-2.6-20.792-3.639-30.148-4.158-34.307-8.317-67.574-11.955-100.321z m310.838 138.786c-1.04-51.46-2.598-101.36-3.638-152.82-1.04-63.416 0-127.87 0-191.286 0-14.035-1.04-27.03-1.56-41.064 0-6.238-3.638-11.436-10.395-11.436-27.03-1.04-54.58-1.559-81.609-1.559-10.395 0-19.752 1.56-30.148 3.639 1.04 3.638 1.04 6.237 1.04 8.836 3.638 43.663 7.797 86.806 11.435 129.43 3.639 41.583 7.797 84.207 11.436 125.79 4.158 45.223 7.797 90.445 11.955 135.668 0 2.598 4.159 6.757 6.758 6.757 27.549 1.04 56.657 0 85.766 0-1.04-5.718-1.04-9.356-1.04-11.955z m-350.862-462.1c-5.198-49.38-9.357-96.162-14.035-143.984-1.04-6.237-3.639-9.356-8.837-9.356-16.633 0-33.786 0-51.46 1.04 6.758 53.019 12.996 103.959 19.753 156.458 19.232-1.559 36.386-2.079 54.579-4.158z m343.066 7.797V346.705c0-9.357-3.639-11.956-11.436-11.956h-45.222v151.78c19.752 1.04 38.465 1.56 56.658 2.6v-10.396z m-419.477-1.56v-10.395c-2.599-27.03-6.237-53.02-8.836-80.05-1.56-17.152-3.639-33.786-5.198-51.459-1.04-4.158 1.04-10.396-6.238-9.356-16.633 1.56-32.747 5.198-49.38 6.757 9.356 51.46 18.192 101.36 27.549 151.78l42.103-7.276z m344.106 8.837v-79.009c0-20.792-1.04-42.623 0-63.415 0-7.797-2.599-9.357-9.356-9.357h-46.262c4.158 54.06 7.797 105 11.955 155.42 14.035-1.04 28.07-2.08 43.663-3.639z m0 0" fill="#333333" p-id="3025"></path></svg>